<svg width="10" height="11" viewBox="0 0 10 11" fill="none" xmlns="http://www.w3.org/2000/svg">
<path fill-rule="evenodd" clip-rule="evenodd" d="M2.6624 2.38349V2.77309H1.63023C1.13154 2.77309 0.713888 3.14919 0.661422 3.64528L0.00533625 9.87887C-0.00893333 10.0146 0.00549343 10.1519 0.0476808 10.2817C0.0898682 10.4115 0.158874 10.531 0.250222 10.6325C0.341571 10.7339 0.453222 10.815 0.577933 10.8705C0.702645 10.926 0.837633 10.9547 0.97414 10.9547H9.02586C9.16237 10.9547 9.29735 10.926 9.42207 10.8705C9.54678 10.815 9.65843 10.7339 9.74978 10.6325C9.84113 10.531 9.91013 10.4115 9.95232 10.2817C9.99451 10.1519 10.0089 10.0146 9.99466 9.87887L9.33858 3.64528C9.31342 3.40588 9.20049 3.18428 9.02159 3.02322C8.84269 2.86216 8.61049 2.77306 8.36977 2.77309H7.3376V2.38349C7.3376 1.76353 7.09131 1.16895 6.65293 0.730564C6.21455 0.29218 5.61997 0.0458984 5 0.0458984C4.38003 0.0458984 3.78545 0.29218 3.34707 0.730564C2.90869 1.16895 2.6624 1.76353 2.6624 2.38349ZM5 0.825097C4.58669 0.825097 4.1903 0.989285 3.89805 1.28154C3.60579 1.5738 3.4416 1.97018 3.4416 2.38349V2.77309H6.5584V2.38349C6.5584 1.97018 6.39421 1.5738 6.10195 1.28154C5.8097 0.989285 5.41331 0.825097 5 0.825097ZM3.4416 5.11069C3.4416 5.524 3.60579 5.92039 3.89805 6.21264C4.1903 6.5049 4.58669 6.66909 5 6.66909C5.41331 6.66909 5.8097 6.5049 6.10195 6.21264C6.39421 5.92039 6.5584 5.524 6.5584 5.11069V4.72109C6.5584 4.61776 6.59944 4.51867 6.67251 4.4456C6.74557 4.37254 6.84467 4.33149 6.948 4.33149C7.05132 4.33149 7.15042 4.37254 7.22349 4.4456C7.29655 4.51867 7.3376 4.61776 7.3376 4.72109V5.11069C7.3376 5.73066 7.09131 6.32524 6.65293 6.76362C6.21455 7.202 5.61997 7.44829 5 7.44829C4.38003 7.44829 3.78545 7.202 3.34707 6.76362C2.90869 6.32524 2.6624 5.73066 2.6624 5.11069V4.72109C2.6624 4.61776 2.70345 4.51867 2.77652 4.4456C2.84958 4.37254 2.94868 4.33149 3.052 4.33149C3.15533 4.33149 3.25443 4.37254 3.32749 4.4456C3.40056 4.51867 3.4416 4.61776 3.4416 4.72109V5.11069Z" fill="white"/>
</svg>
