<svg width="30" height="31" viewBox="0 0 30 31" fill="none" xmlns="http://www.w3.org/2000/svg">
<rect width="30" height="29.9355" transform="translate(0 0.532227)" fill="black"/>
<path fill-rule="evenodd" clip-rule="evenodd" d="M11.1613 8.53223H18.8387C20.5774 8.53223 22 9.95481 22 11.6935V19.3064C22 21.0451 20.5774 22.4677 18.8387 22.4677H15.8481V17.6324H17.7417L18.1345 15.4933H15.8481V14.7368C15.8481 13.6064 16.2915 13.1716 17.4393 13.1716C17.7959 13.1716 18.0828 13.1803 18.248 13.1976V11.2586C17.935 11.1716 17.1698 11.0846 16.7263 11.0846C14.3872 11.0846 13.309 12.189 13.309 14.5716V15.4933H11.8655V17.6324H13.309V22.4677H11.1613C9.42259 22.4677 8 21.0451 8 19.3064V11.6935C8 9.95481 9.42259 8.53223 11.1613 8.53223Z" fill="white"/>
</svg>
