<svg width="30" height="31" viewBox="0 0 30 31" fill="none" xmlns="http://www.w3.org/2000/svg">
<rect width="30" height="29.8261" transform="translate(0 0.586914)" fill="black"/>
<path fill-rule="evenodd" clip-rule="evenodd" d="M12.7595 12.985H15.5998V14.441H15.641C16.0366 13.7314 17.0039 12.985 18.4462 12.985C21.4455 12.985 22 14.8515 22 17.2795V22.413H19.0381L19.0376 17.8411C19.0376 16.7957 19.0161 15.4504 17.4974 15.4504C15.9554 15.4504 15.7187 16.588 15.7187 17.7651V22.413H12.7595V12.985ZM11.0809 10.1272C11.0809 10.9772 10.3907 11.6674 9.54068 11.6674C8.69021 11.6674 8 10.9772 8 10.1272C8 9.27668 8.69021 8.58691 9.54068 8.58691C10.3907 8.58691 11.0809 9.27668 11.0809 10.1272ZM8 12.985H11.0809V22.413H8V12.985Z" fill="white"/>
</svg>
