<svg width="30" height="31" viewBox="0 0 30 31" fill="none" xmlns="http://www.w3.org/2000/svg">
<rect width="30" height="30.0691" transform="translate(0 0.46582)" fill="black"/>
<path fill-rule="evenodd" clip-rule="evenodd" d="M19.9581 10.5104C18.6596 9.20323 16.8908 8.46582 15.0477 8.46582H15.0266C11.1849 8.46585 8.05834 11.593 8.05834 15.4371L8.05837 15.4375C8.0586 16.6607 8.38056 17.8622 8.99194 18.9216L8 22.535L11.6959 21.5649C12.7174 22.1216 13.8621 22.4138 15.0254 22.4148H15.0255H15.027C18.8774 22.4148 22 19.2922 22 15.4418C22 13.5928 21.2645 11.8186 19.9577 10.5119L19.9581 10.5104ZM15.029 21.2406C13.9906 21.2406 12.97 20.9595 12.0779 20.4297L11.8656 20.3032L9.67233 20.8777L10.2556 18.7399L10.1185 18.5205C9.53689 17.5962 9.22697 16.5241 9.22697 15.4315C9.22697 12.2307 11.8227 9.63503 15.0234 9.63503C16.564 9.63503 18.0423 10.2486 19.1292 11.3398C20.2165 12.4276 20.8274 13.9026 20.8275 15.4406C20.8275 18.6433 18.2309 21.2406 15.0282 21.2406H15.029ZM18.2081 16.8971C18.0331 16.8091 17.1774 16.3891 17.0187 16.3307C16.86 16.2724 16.7434 16.2427 16.625 16.4188C16.5066 16.595 16.1747 16.9852 16.0732 17.1025C15.9717 17.2197 15.8696 17.2349 15.6969 17.1468C15.5242 17.0587 14.9602 16.875 14.2969 16.2812C13.9149 15.9289 13.5867 15.5224 13.323 15.0746C13.2209 14.8996 13.3119 14.8057 13.4005 14.7205C13.4892 14.6354 13.5755 14.5175 13.6613 14.4155C13.7338 14.3276 13.7927 14.2293 13.8361 14.124C13.8593 14.076 13.8701 14.023 13.8677 13.9697C13.8653 13.9165 13.8496 13.8647 13.8222 13.819C13.7749 13.7315 13.4249 12.874 13.2849 12.5246C13.1449 12.1752 12.9997 12.2329 12.8923 12.2248C12.785 12.2166 12.6747 12.2195 12.5598 12.2195C12.4712 12.2216 12.384 12.242 12.3037 12.2795C12.2234 12.3169 12.1518 12.3706 12.0932 12.4371C11.9363 12.6103 11.4854 13.0332 11.4854 13.8907C11.4854 14.7482 12.1089 15.5754 12.1964 15.6932C12.2839 15.811 13.4249 17.5698 15.1749 18.324C15.5902 18.5025 15.9145 18.6098 16.1665 18.6926C16.3915 18.7604 16.6251 18.7949 16.8601 18.7949C16.995 18.7949 17.1302 18.7835 17.263 18.7609C17.5979 18.7119 18.2932 18.3403 18.4396 17.9337C18.586 17.5271 18.5854 17.1754 18.5416 17.106C18.4979 17.0366 18.3848 16.9859 18.2092 16.8966L18.2081 16.8971Z" fill="white"/>
</svg>
